PathFileType	4	(X/Y/Z)	s08c0001.trc
DataRate	CameraRate	NumFrames	NumMarkers	Units	OrigDataRate	OrigDataStartFrame	OrigNumFrames
200	200	4	49	mm	200	1750	2000
Frame#	Time	racr			lacr			c7			jug			rlel			rdr			llel			ldr			s2			lic			ric			lasi			rasi			rpsi			lpsi			rgt			lgt			rth1			rth2			rth3			rth4			rlfc			rmfc			rsh1			rsh2			rsh3			rsh4			rlmal			rmmal			rcal			rtoe			rmt5			rmt1			lth1			lth2			lth4			lth3			llfc			lmfc			llmal			lmmal			lcal			lmt1			lmt5			lsh1			lsh2			lsh3			lsh4			ltoe			
		X1	Y1	Z1	X2	Y2	Z2	X3	Y3	Z3	X4	Y4	Z4	X5	Y5	Z5	X6	Y6	Z6	X7	Y7	Z7	X8	Y8	Z8	X9	Y9	Z9	X10	Y10	Z10	X11	Y11	Z11	X12	Y12	Z12	X13	Y13	Z13	X14	Y14	Z14	X15	Y15	Z15	X16	Y16	Z16	X17	Y17	Z17	X18	Y18	Z18	X19	Y19	Z19	X20	Y20	Z20	X21	Y21	Z21	X22	Y22	Z22	X23	Y23	Z23	X24	Y24	Z24	X25	Y25	Z25	X26	Y26	Z26	X27	Y27	Z27	X28	Y28	Z28	X29	Y29	Z29	X30	Y30	Z30	X31	Y31	Z31	X32	Y32	Z32	X33	Y33	Z33	X34	Y34	Z34	X35	Y35	Z35	X36	Y36	Z36	X37	Y37	Z37	X38	Y38	Z38	X39	Y39	Z39	X40	Y40	Z40	X41	Y41	Z41	X42	Y42	Z42	X43	Y43	Z43	X44	Y44	Z44	X45	Y45	Z45	X46	Y46	Z46	X47	Y47	Z47	X48	Y48	Z48	X49	Y49	Z49	
1750	8.7500	429.074524	1529.018188	596.811646	417.259247	1544.753906	199.654938	370.242096	1584.046021	396.979950	500.464508	1487.302124	395.434814	387.642578	1235.616455	681.938843	463.337738	957.958557	790.928833	396.041626	1244.469727	98.813286	455.901794	973.724731	-4.959684	334.364777	1028.666260	404.544250	481.124451	1094.037109	238.910568	487.627167	1099.634033	555.806091	530.265930	1036.260864	269.412903	543.433838	1033.073608	521.105469	356.621399	1067.958374	452.241730	355.029907	1075.896973	352.911072	430.243011	955.267578	577.362671	435.052734	943.595337	212.312729	442.254913	804.033020	593.128296	463.348206	718.081787	588.645813	500.200073	718.400269	580.271545	439.292542	634.845154	578.323975	441.951447	511.695435	559.298157	426.071808	499.939941	455.831604	401.282898	387.440216	593.803589	423.630768	300.971985	576.084900	399.501007	218.346283	569.400757	450.297028	305.617340	545.995239	392.616180	97.779976	555.661743	407.562805	122.486893	469.848785	321.417145	65.489426	507.892883	612.081604	78.876282	510.560028	535.466797	47.829597	577.129883	538.724792	47.661175	464.026062	451.487701	814.994141	189.794434	470.229950	729.707520	193.279205	504.953339	727.632690	206.836273	443.020630	645.316101	196.505219	436.229675	518.398865	217.231003	441.234131	496.107025	315.805817	382.202576	107.303497	221.803848	412.451691	126.452744	302.145935	325.208771	74.373787	264.518494	542.004761	47.102070	295.872467	528.709045	42.973377	181.181107	413.096252	394.302826	190.906036	425.639343	310.567474	207.995911	395.822876	227.361252	207.749207	446.866241	312.746704	240.287750	610.624329	81.396942	243.116730	
1751	8.7550	429.076691	1529.034668	596.840454	417.274597	1544.770264	199.670654	370.240936	1584.052979	397.015259	500.455414	1487.299316	395.440521	387.596832	1235.645020	681.962646	463.301331	957.968933	790.953430	396.046753	1244.468994	98.828239	455.925476	973.737061	-4.938754	334.341675	1028.670776	404.549225	481.094421	1094.038696	238.913803	487.613403	1099.641724	555.824280	530.246948	1036.254272	269.423492	543.403198	1033.089233	521.119751	356.603241	1067.963013	452.246582	355.000244	1075.908813	352.886383	430.254150	955.266907	577.372375	435.032654	943.599670	212.309204	442.251190	804.035950	593.128723	463.337372	718.077881	588.650330	500.181671	718.405396	580.287170	439.286743	634.838013	578.329468	441.938416	511.686371	559.309265	426.064087	499.928436	455.834991	401.253174	387.376434	593.866577	423.644470	300.975800	576.083008	399.508362	218.347626	569.395569	450.287811	305.699188	546.003113	392.598785	97.790916	555.652527	407.558411	122.470161	469.839691	321.440491	65.485443	507.874573	612.087524	78.885544	510.559021	535.434631	47.833740	577.126770	538.717834	47.659161	464.036713	451.489044	814.994812	189.806107	470.149292	729.818176	193.435211	504.631439	725.803467	211.766098	442.992920	645.312195	196.511932	436.219299	518.429382	217.219574	441.223480	496.107666	315.807922	382.186462	107.322586	221.794479	412.484711	126.418137	302.152710	325.233734	74.378418	264.527802	541.986633	47.094551	295.854706	528.729126	42.985004	181.157227	413.081055	394.305817	190.904953	425.636719	310.577515	207.987564	395.848907	227.385254	207.760315	446.861694	312.744751	240.291809	610.629578	81.392975	243.131287	
1752	8.7600	429.085327	1529.040649	596.858948	417.246460	1544.762329	199.696915	370.205475	1584.052612	397.054718	500.486664	1487.306641	395.469727	387.591736	1235.648560	681.990906	463.266357	957.987854	790.994324	396.064301	1244.470703	98.865189	455.943481	973.733276	-4.912095	334.333405	1028.678223	404.558044	481.089691	1094.052979	238.915100	487.602448	1099.640503	555.822815	530.248718	1036.256958	269.447540	543.399475	1033.073486	521.121033	356.577393	1067.968384	452.235657	355.001160	1075.924316	352.906616	430.217072	955.261536	577.376526	435.034515	943.600769	212.326584	442.241913	804.045837	593.139160	463.327667	718.075867	588.651367	500.185883	718.396484	580.286133	439.382507	634.823730	578.481567	441.828796	511.603210	559.259460	426.058258	499.937256	455.847534	401.226440	387.375397	593.872559	423.643005	300.981110	576.098694	399.510468	218.346985	569.407288	450.274384	305.672974	545.991699	392.606049	97.803108	555.645996	407.579712	122.466766	469.827667	321.444519	65.473854	507.873810	612.098938	78.884163	510.554443	535.413147	47.838577	577.117981	538.716125	47.658440	464.030914	451.476990	815.002197	189.826294	470.197357	729.733765	193.266068	504.946533	727.641235	206.871872	442.990906	645.340942	196.515808	436.219299	518.429382	217.219589	441.220245	496.087402	315.809235	382.203796	107.318214	221.801178	412.488525	126.407448	302.124481	325.234833	74.369446	264.524048	542.017090	47.095287	295.860626	528.711914	42.991993	181.163605	413.070648	394.306396	190.912384	425.634277	310.596497	208.011093	395.826355	227.377197	207.746323	446.860168	312.757599	240.279449	610.632874	81.395111	243.137512	
1753	8.7650	429.095184	1529.048828	596.874634	417.268585	1544.762085	199.721924	370.234161	1584.051392	397.060394	500.468628	1487.309204	395.495728	387.565582	1235.645996	682.009216	463.216919	957.993530	791.019897	396.067078	1244.485840	98.874222	455.954803	973.745300	-4.884993	334.320190	1028.678711	404.554718	481.106903	1094.060669	238.943466	487.577759	1099.636230	555.834290	530.242615	1036.254028	269.451050	543.378052	1033.067017	521.137451	356.569214	1067.961426	452.234924	354.975006	1075.927002	352.905121	430.222839	955.261169	577.375671	435.040161	943.603333	212.330231	442.231781	804.030151	593.137268	463.317841	718.077026	588.669006	500.171265	718.391968	580.272705	439.359528	634.831848	578.481750	441.818359	511.602875	559.239807	426.072174	499.935333	455.849823	401.215454	387.378143	593.887573	423.630768	300.971954	576.084839	399.510712	218.351425	569.399231	450.295868	305.706268	546.021790	392.600830	97.798531	555.646484	407.564941	122.488747	469.847412	321.435608	65.483963	507.885529	612.091431	78.900650	510.570831	535.407593	47.874577	577.117981	538.717957	47.656235	464.032196	451.476318	814.990295	189.836044	470.199005	729.717041	193.279572	504.939331	727.635498	206.877762	442.972839	645.331116	196.500854	436.223419	518.406860	217.229874	441.205078	496.108429	315.822754	382.203796	107.318222	221.801163	412.476105	126.413795	302.167725	325.220306	74.379311	264.507751	542.005798	47.099522	295.873474	528.712219	42.983097	181.167038	413.069244	394.321228	190.919418	425.605804	310.582855	208.012695	395.824768	227.386703	207.758286	446.864227	312.773010	240.299454	610.623413	81.381783	243.112793	
